HIERARCHY
ROOT Hips
{
	OFFSET 0.00000 0.00000 0.00000
	CHANNELS 6 Xposition Yposition Zposition Zrotation Yrotation Xrotation 
	JOINT RightUpLegDummy
	{
		OFFSET 0 0 0
		CHANNELS 3 Zrotation Yrotation Xrotation
		JOINT RightUpLeg
		{
			OFFSET -3.52197 -3.41223 0.04002
			CHANNELS 3 Zrotation Yrotation Xrotation
			JOINT RightLeg
			{
				OFFSET 0.00006 -17.42390 1.60435
				CHANNELS 3 Zrotation Yrotation Xrotation
				JOINT RightFoot
				{
					OFFSET 0.06153 -16.50078 -1.63901
					CHANNELS 3 Zrotation Yrotation Xrotation
					JOINT RightToes
					{
						OFFSET 0.00298 -1.73825 3.34613
						CHANNELS 3 Zrotation Yrotation Xrotation
						End Site
						{
							OFFSET 0.00480 -0.05416 3.85043
						}
					}
				}
			}
		}
	}
	JOINT SpineDummy
	{
		OFFSET 0 0 0
		CHANNELS 3 Zrotation Yrotation Xrotation
		JOINT Spine
		{
			OFFSET 0.00000 4.68130 0.00000
			CHANNELS 3 Zrotation Yrotation Xrotation
			JOINT Spine1
			{
				OFFSET -0.00000 10.10138 0.05002
				CHANNELS 3 Zrotation Yrotation Xrotation
				JOINT HEadDummy
				{
					OFFSET 0 0 0
					CHANNELS 3 Zrotation Yrotation Xrotation
					JOINT Head
					{
						OFFSET -0.00000 3.43865 0.00438
						CHANNELS 3 Zrotation Yrotation Xrotation
						End Site
						{
							OFFSET -0.11417 5.02924 0.98962
						}
					}
				}
				JOINT LeftShoulder1Dummy
				{
					OFFSET 0 0 0
					CHANNELS 3 Zrotation Yrotation Xrotation
					JOINT LeftShoulder1
					{
						OFFSET 3.53937 -0.14262 -0.08662
						CHANNELS 3 Zrotation Yrotation Xrotation
						JOINT LeftArm
						{
							OFFSET 4.04833 -0.00133 0.12681
							CHANNELS 3 Zrotation Yrotation Xrotation
							JOINT LeftForeArm
							{
								OFFSET 10.33880 -0.01036 -0.55515
								CHANNELS 3 Zrotation Yrotation Xrotation
								JOINT LeftHand
								{
									OFFSET 8.69677 0.07543 0.40060
									CHANNELS 3 Zrotation Yrotation Xrotation
									End Site
									{
										OFFSET 5.28377 -0.21905 0.59205
									}
								}
							}
						}
					}
				}
				JOINT RightShoulderDummy
				{
					OFFSET 0 0 0
					CHANNELS 3 Zrotation Yrotation Xrotation
					JOINT RightShoulder
					{
						OFFSET -3.53937 -0.14262 -0.08660
						CHANNELS 3 Zrotation Yrotation Xrotation
						JOINT RightArm
						{
							OFFSET -4.04833 -0.00133 0.12683
							CHANNELS 3 Zrotation Yrotation Xrotation
							JOINT RightForeArm
							{
								OFFSET -10.37987 -0.01039 -0.55511
								CHANNELS 3 Zrotation Yrotation Xrotation
								JOINT RightHand
								{
									OFFSET -8.67398 0.07538 0.40058
									CHANNELS 3 Zrotation Yrotation Xrotation
									End Site
									{
										OFFSET -5.24810 -0.21916 0.59204
									}
								}
							}
						}
					}
				}
			}
		}
	}
	JOINT LeftUpLegDummy
	{
		OFFSET 0 0 0
		CHANNELS 3 Zrotation Yrotation Xrotation
		JOINT LeftUpLeg
		{
			OFFSET 3.52197 -3.41223 0.04002
			CHANNELS 3 Zrotation Yrotation Xrotation
			JOINT LeftLeg
			{
				OFFSET -0.00012 -17.42399 1.60337
				CHANNELS 3 Zrotation Yrotation Xrotation
				JOINT LeftFoot
				{
					OFFSET -0.09972 -16.50070 -1.63802
					CHANNELS 3 Zrotation Yrotation Xrotation
					JOINT LeftToes
					{
						OFFSET -0.01575 -1.73823 3.34611
						CHANNELS 3 Zrotation Yrotation Xrotation
						End Site
						{
							OFFSET 0.03150 -0.01868 3.85031
						}
					}
				}
			}
		}
	}
}
MOTION
Frames: 17
Frame Time: 0.033333
-32.9709 38.3614 -6.2904 -27.9072 85.3789 -30.3751 0.0000 0.0000 0.0000 7.7409 1.7192 -17.2774 -5.3603 -21.0694 15.8393 -1.4622 0.1306 -0.7524 0.0000 -0.0000 0.0000 0.0000 0.0000 0.0000 2.5195 -2.2338 6.2497 3.8028 -3.0017 -0.1740 -0.0000 0.0000 -0.0000 3.2284 -7.7285 9.2416 -0.0000 0.0000 -0.0000 -34.6642 -2.6800 2.5170 -45.9714 -15.5404 -17.9482 -9.9123 5.0888 49.6572 15.4842 -3.7495 -1.1918 -0.0000 0.0000 -0.0000 34.9067 5.2233 3.5718 39.2058 0.3878 -21.0751 9.3020 -1.0980 21.5892 -8.7945 1.9502 -0.5392 0.0000 0.0000 0.0000 8.7231 15.9421 13.3884 -10.1117 -11.1424 38.0736 -14.4775 3.1273 13.6550 0.0000 0.0000 -0.0000
-32.0398 38.3074 -6.1625 -21.8468 84.6742 -24.8704 0.0000 0.0000 0.0000 7.9882 1.2603 -16.4358 -5.6051 -19.3579 18.4445 -2.6772 0.1923 -2.6885 0.0000 -0.0000 0.0000 0.0000 0.0000 0.0000 2.3963 -2.3262 6.8836 3.6733 -3.0545 -0.3262 -0.0000 0.0000 -0.0000 3.6117 -8.1677 9.8122 -0.0000 0.0000 -0.0000 -34.3570 -2.7055 2.5080 -45.5653 -16.1564 -16.8210 -10.5054 5.0838 49.5843 16.1197 -3.6303 -1.2269 -0.0000 0.0000 -0.0000 35.0177 5.2438 3.5901 39.4298 1.3287 -20.2760 9.5193 0.8617 20.8524 -8.6432 2.1661 -0.5440 0.0000 0.0000 0.0000 8.2265 14.0821 9.6397 -10.0674 -8.8644 44.5973 -14.4377 3.6805 18.0315 0.0000 0.0000 -0.0000
-31.0400 38.3465 -6.0646 -16.7857 83.7960 -20.2353 0.0000 0.0000 0.0000 8.1494 0.9321 -15.0074 -5.6022 -17.9868 19.8003 -3.7879 0.2201 -4.2468 0.0000 -0.0000 0.0000 0.0000 0.0000 0.0000 2.5192 -2.3407 7.1198 3.3519 -3.0108 -0.3956 -0.0000 0.0000 -0.0000 3.7088 -8.4589 10.5429 -0.0000 0.0000 -0.0000 -34.3853 -2.6981 2.5068 -44.6594 -17.0519 -15.7607 -11.0197 5.0531 50.3958 16.0366 -3.6139 -1.2181 -0.0000 0.0000 -0.0000 35.1150 5.2592 3.6051 39.7127 1.8455 -18.9758 9.9048 3.8727 19.5017 -8.6999 2.4682 -0.5680 0.0000 0.0000 0.0000 7.5894 12.3167 6.2297 -6.5468 -5.0458 48.7391 -12.4347 2.8337 14.8977 0.0000 0.0000 -0.0000
-29.9663 38.4522 -5.9759 -11.4363 82.2799 -15.2432 0.0000 0.0000 0.0000 8.2317 0.7489 -13.0698 -5.2425 -16.2898 20.2648 -4.3094 0.1942 -5.6390 0.0000 -0.0000 0.0000 0.0000 0.0000 0.0000 2.7853 -2.0855 6.9286 2.8525 -2.6760 -0.1947 -0.0000 0.0000 -0.0000 3.5118 -8.3545 11.3777 -0.0000 0.0000 -0.0000 -34.2776 -2.6631 2.4859 -43.9920 -17.8843 -15.2071 -11.2892 5.0515 50.3324 15.6209 -3.8064 -1.2100 -0.0000 0.0000 -0.0000 35.0888 5.2550 3.6010 40.1122 2.3386 -16.7722 10.1188 7.2637 17.5055 -8.7699 2.7259 -0.5902 0.0000 0.0000 0.0000 7.0607 11.3897 3.4824 -0.2884 -0.4867 50.2938 -8.5436 1.3424 6.8552 0.0000 0.0000 -0.0000
-28.8936 38.5636 -5.8747 -6.5949 80.2699 -10.8196 0.0000 0.0000 0.0000 8.1880 0.6169 -10.9387 -4.7639 -14.2427 20.4700 -4.7563 0.1535 -7.0208 0.0000 -0.0000 0.0000 0.0000 0.0000 0.0000 2.8294 -1.6949 6.6914 2.4457 -2.2152 0.1479 -0.0000 0.0000 -0.0000 3.3964 -7.9739 12.0433 -0.0000 0.0000 -0.0000 -33.9755 -2.6165 2.4484 -43.7210 -18.3730 -15.1485 -11.3949 5.1078 48.3830 15.7969 -3.8206 -1.2259 -0.0000 0.0000 -0.0000 34.9630 5.2364 3.5822 40.6433 3.2194 -12.4274 9.6285 10.5708 13.8252 -8.7346 2.8880 -0.5986 0.0000 0.0000 0.0000 6.6282 10.9822 1.2544 5.4878 3.5037 49.6663 -3.9563 0.3716 -0.4444 0.0000 0.0000 -0.0000
-27.8565 38.6867 -5.7740 -3.1763 78.1591 -7.8677 0.0000 0.0000 0.0000 7.9453 0.3436 -8.6574 -4.0993 -12.0692 20.3050 -5.3306 0.1187 -8.1501 0.0000 -0.0000 0.0000 0.0000 0.0000 0.0000 2.6959 -1.3947 6.6320 2.2471 -1.8724 0.3637 -0.0000 0.0000 -0.0000 3.4721 -7.5076 12.5780 -0.0000 0.0000 -0.0000 -33.9058 -2.5680 2.4247 -43.3772 -18.5500 -15.3260 -11.4736 5.1862 45.5704 16.7198 -3.4774 -1.2531 -0.0000 0.0000 -0.0000 34.7735 5.2123 3.5555 41.1905 4.3556 -7.3110 8.5552 13.4144 9.5595 -8.7338 2.9616 -0.6035 0.0000 0.0000 0.0000 6.2663 10.4229 -0.7267 8.8168 6.3686 47.3761 -0.6250 0.0562 -4.8151 0.0000 0.0000 -0.0000
-26.8621 38.7969 -5.6886 -0.9409 76.0741 -6.0097 0.0000 0.0000 0.0000 7.4924 -0.1033 -6.5257 -3.2632 -9.7710 20.0855 -5.8280 0.0778 -9.1526 0.0000 -0.0000 0.0000 0.0000 0.0000 0.0000 2.6018 -1.1973 6.6492 2.1001 -1.6392 0.4023 -0.0000 0.0000 -0.0000 3.5126 -6.9603 13.1741 -0.0000 0.0000 -0.0000 -34.1311 -2.5454 2.4296 -42.8115 -18.6654 -15.5542 -11.5082 5.2339 43.7643 17.5139 -3.2297 -1.2794 -0.0000 0.0000 -0.0000 34.5875 5.1890 3.5296 41.7296 5.3578 -2.3062 7.1386 15.8643 5.1316 -8.8433 2.9982 -0.6139 0.0000 0.0000 0.0000 5.9382 9.5664 -2.6896 10.0791 8.3741 43.8375 0.4234 0.0286 -7.6620 0.0000 0.0000 -0.0000
-25.8987 38.8727 -5.6061 0.7237 74.0144 -4.6261 0.0000 0.0000 0.0000 6.9465 -0.5510 -4.6390 -2.5549 -7.5178 20.0600 -6.3258 0.0218 -10.2605 0.0000 -0.0000 0.0000 0.0000 0.0000 0.0000 2.4932 -1.0350 6.5860 1.9065 -1.4350 0.4438 -0.0000 0.0000 -0.0000 3.4508 -6.3101 13.7849 -0.0000 0.0000 -0.0000 -34.2123 -2.5637 2.4419 -42.4324 -18.8466 -15.7275 -11.4469 5.2400 43.5552 17.4638 -3.4562 -1.3079 -0.0000 0.0000 -0.0000 34.4908 5.1708 3.5137 42.2276 6.0709 1.7802 5.6675 17.8242 1.2021 -8.8862 3.0781 -0.6225 0.0000 0.0000 0.0000 5.7031 8.5936 -4.6787 9.8088 9.5358 39.3959 0.1677 0.0552 -9.6222 0.0000 0.0000 -0.0000
-24.9636 38.9285 -5.5131 1.9967 72.1008 -3.6816 0.0000 0.0000 0.0000 6.4509 -0.7829 -2.7171 -2.1948 -5.7364 19.9373 -7.0043 -0.0428 -11.3554 0.0000 -0.0000 0.0000 0.0000 0.0000 0.0000 2.1647 -0.9519 6.5623 1.8824 -1.3463 0.5367 -0.0000 0.0000 -0.0000 3.4322 -5.6318 14.2433 -0.0000 0.0000 -0.0000 -34.0680 -2.5858 2.4419 -42.3923 -19.0109 -15.7312 -11.3911 5.2280 44.0453 16.9397 -3.9215 -1.3324 -0.0000 0.0000 -0.0000 34.4579 5.1565 3.5051 42.5921 6.6142 4.3865 4.5927 19.0749 -1.3620 -8.7691 3.2000 -0.6222 0.0000 0.0000 0.0000 5.6557 7.4504 -6.5694 8.2015 9.3992 34.4462 0.0780 0.0623 -10.4567 0.0000 0.0000 -0.0000
-24.0650 38.9708 -5.4271 2.7399 70.3032 -3.3405 0.0000 0.0000 0.0000 6.0013 -0.8080 -0.7062 -1.9767 -4.3316 19.6206 -7.7132 -0.1106 -12.3097 0.0000 -0.0000 0.0000 0.0000 0.0000 0.0000 1.6937 -0.9584 6.7417 2.1687 -1.4098 0.5909 -0.0000 0.0000 -0.0000 3.4312 -4.9606 14.5421 -0.0000 0.0000 -0.0000 -34.1467 -2.5746 2.4422 -42.3400 -19.0763 -15.5494 -11.4685 5.2184 44.3731 16.6209 -4.1558 -1.3383 -0.0000 0.0000 -0.0000 34.4130 5.1466 3.4971 42.7505 7.0358 5.9596 4.0305 19.7264 -2.8179 -8.6548 3.2591 -0.6176 0.0000 0.0000 0.0000 5.8541 5.9206 -8.3282 6.1470 8.3155 29.4359 0.3547 0.0592 -10.3815 0.0000 0.0000 -0.0000
-23.1913 38.9996 -5.3687 3.0061 68.2929 -3.3990 0.0000 0.0000 0.0000 5.4641 -0.7217 1.1755 -1.5447 -2.7138 19.2975 -8.1888 -0.1807 -13.1883 0.0000 -0.0000 0.0000 0.0000 0.0000 0.0000 1.4676 -0.9225 6.9807 2.3694 -1.4129 0.6344 -0.0000 0.0000 -0.0000 3.3134 -4.2761 14.7450 -0.0000 0.0000 -0.0000 -34.5097 -2.5504 2.4548 -42.2098 -19.0331 -15.3736 -11.5918 5.2120 44.5543 16.4381 -4.1360 -1.3203 -0.0000 0.0000 -0.0000 34.4117 5.1503 3.4985 42.6986 7.2047 7.0041 3.8077 20.0339 -3.9284 -8.6095 3.1982 -0.6102 0.0000 0.0000 0.0000 6.3188 4.0362 -9.9638 4.8142 7.7590 24.5424 0.4657 0.0529 -9.8222 0.0000 0.0000 -0.0000
-22.3244 39.0283 -5.3274 3.0226 65.8929 -3.5366 0.0000 0.0000 0.0000 4.8198 -0.3632 2.8732 -0.9091 -0.8367 18.9293 -8.3958 -0.2446 -13.9727 0.0000 -0.0000 0.0000 0.0000 0.0000 0.0000 1.7003 -0.7818 7.0881 2.0158 -1.1949 0.7250 -0.0000 0.0000 -0.0000 3.1751 -3.6567 14.8547 -0.0000 0.0000 -0.0000 -34.6360 -2.5455 2.4606 -42.4347 -18.8089 -15.3920 -11.5797 5.2056 44.7994 16.0055 -4.1411 -1.2848 -0.0000 0.0000 -0.0000 34.5411 5.1696 3.5177 42.5231 7.0583 7.3885 3.8903 20.0257 -4.7227 -8.4943 3.0615 -0.5928 0.0000 0.0000 0.0000 7.0924 2.1054 -11.4024 4.2343 8.3302 19.7126 0.2831 0.0487 -9.0346 0.0000 0.0000 -0.0000
-21.4642 39.0567 -5.2818 2.8592 63.3424 -3.7519 0.0000 0.0000 0.0000 4.2398 0.4847 4.4943 -0.3577 0.7148 18.4079 -8.4734 -0.2927 -14.5661 0.0000 -0.0000 0.0000 0.0000 0.0000 0.0000 2.0848 -0.6537 7.1593 1.4074 -0.9347 0.7760 -0.0000 0.0000 -0.0000 3.1927 -3.2070 14.9150 -0.0000 0.0000 -0.0000 -34.4403 -2.5469 2.4491 -43.0681 -18.2868 -15.4993 -11.4862 5.2022 44.9720 15.8746 -4.1768 -1.2785 -0.0000 0.0000 -0.0000 34.7016 5.1862 3.5385 42.3134 6.7443 6.9273 4.3695 19.5805 -4.5633 -8.3796 2.8932 -0.5735 0.0000 0.0000 0.0000 8.0754 0.9521 -12.6607 3.5467 8.2412 15.1120 -0.0758 0.0519 -8.2955 0.0000 0.0000 -0.0000
-20.6115 39.0621 -5.2288 2.5094 60.8756 -4.1212 0.0000 0.0000 0.0000 3.7991 1.7695 6.0134 0.0334 1.6958 17.9429 -8.5069 -0.3336 -15.0773 0.0000 -0.0000 0.0000 0.0000 0.0000 0.0000 2.1165 -0.6266 7.3324 1.3106 -0.8827 0.7252 -0.0000 0.0000 -0.0000 3.2862 -2.8511 15.0360 -0.0000 0.0000 -0.0000 -34.5049 -2.5354 2.4484 -43.5611 -17.4961 -15.4612 -11.5194 5.2015 44.9833 17.3203 -4.0372 -1.3804 -0.0000 0.0000 -0.0000 34.7381 5.1848 3.5412 42.0382 6.4416 5.7881 5.2082 18.7162 -3.0431 -8.5668 2.7348 -0.5765 0.0000 0.0000 0.0000 8.7589 2.0043 -13.8602 2.4907 5.0319 11.0776 -0.5868 0.0649 -7.9579 0.0000 0.0000 -0.0000
-19.7468 39.0317 -5.1789 2.0699 58.3644 -4.5189 0.0000 0.0000 0.0000 3.3424 3.3365 7.2735 0.4870 2.4839 17.8447 -8.4259 -0.3809 -15.7232 0.0000 -0.0000 0.0000 0.0000 0.0000 0.0000 1.7764 -0.6300 7.5324 1.7755 -0.9787 0.6405 -0.0000 0.0000 -0.0000 3.3000 -2.4372 15.2418 -0.0000 0.0000 -0.0000 -34.9544 -2.5239 2.4713 -43.7164 -16.6083 -15.3679 -11.6492 5.2039 44.8302 20.4095 -3.7022 -1.5802 -0.0000 0.0000 -0.0000 34.7013 5.1777 3.5351 41.6338 6.1340 4.1896 6.2019 17.6186 -0.5612 -9.0268 2.6534 -0.6032 0.0000 0.0000 0.0000 9.2514 4.1231 -14.9688 1.3778 0.1917 7.9010 -1.0874 0.0791 -8.1401 0.0000 0.0000 -0.0000
-18.8470 38.9687 -5.1409 1.5998 55.5814 -4.8560 0.0000 0.0000 0.0000 2.7533 5.0762 8.2042 1.1688 3.4792 18.1870 -8.1375 -0.4267 -16.4829 0.0000 -0.0000 0.0000 0.0000 0.0000 0.0000 1.5685 -0.5869 7.6894 2.0691 -0.9902 0.5312 -0.0000 0.0000 -0.0000 3.2858 -1.9908 15.4327 -0.0000 0.0000 -0.0000 -35.1558 -2.5163 2.4806 -43.9423 -15.7444 -15.5920 -11.6440 5.2232 44.1024 23.2215 -3.3833 -1.7445 -0.0000 0.0000 -0.0000 34.7397 5.1838 3.5410 41.1611 5.6621 2.3222 7.1062 16.5314 1.8580 -9.3675 2.6270 -0.6249 0.0000 0.0000 0.0000 9.9895 5.3898 -15.8378 0.6184 -3.7810 5.7113 -1.5081 0.0881 -8.5474 0.0000 0.0000 -0.0000
-17.9013 38.8660 -5.1157 1.0790 52.5366 -5.2223 0.0000 0.0000 0.0000 2.0713 6.7264 8.8658 1.9980 4.8083 18.9813 -7.6972 -0.4584 -17.2051 0.0000 -0.0000 0.0000 0.0000 0.0000 0.0000 1.7108 -0.5132 7.9122 1.9173 -0.8742 0.3563 -0.0000 0.0000 -0.0000 3.3273 -1.6596 15.4918 -0.0000 0.0000 -0.0000 -34.8822 -2.4862 2.4515 -44.3022 -14.9858 -16.2071 -11.4776 5.2680 42.4388 23.9355 -3.2204 -1.7682 -0.0000 0.0000 -0.0000 34.8885 5.2065 3.5634 40.6464 5.0038 0.5826 7.7670 15.6707 3.3378 -9.5063 2.5341 -0.6277 0.0000 0.0000 0.0000 10.8815 5.9448 -16.4771 0.3221 -7.0735 4.7976 -2.0155 0.0959 -8.9428 0.0000 0.0000 -0.0000
